#tb 0: 1/25
0,          0,          0,        1,   304128, 0x4213231e
0,          1,          1,        1,   304128, 0xfd78ca2e
0,          2,          2,        1,   304128, 0xbd197de7
0,          3,          3,        1,   304128, 0x1e935bba
0,          4,          4,        1,   304128, 0x45b1160d
